<svg xmlns="http://www.w3.org/2000/svg" width="143.237" height="143.237" viewBox="0 0 143.237 143.237">
  <g id="mission" transform="translate(-4738.87 6919.613)">
    <path id="Path_97752" data-name="Path 97752" d="M170.092,157.231c1.935-4.753,2.637-11.658,2.637-16.367a23.865,23.865,0,0,0-6.363-16.4,20.751,20.751,0,0,0-30.7,0,23.237,23.237,0,0,0-3.811,5.489,23.238,23.238,0,0,0-3.811-5.489,20.751,20.751,0,0,0-30.7,0,23.865,23.865,0,0,0-6.363,16.4c0,6.193,2.365,13.87,5.274,19.227a80.1,80.1,0,0,0,7.911,11.643" transform="translate(4678.053 -6998.326)" fill="none" stroke="#c7a386" stroke-linecap="round" stroke-linejoin="round" stroke-width="2"/>
    <path id="Path_97753" data-name="Path 97753" d="M260.212,177.516l2.637-2.637a4.662,4.662,0,1,1,6.592,6.592l-18.459,18.459" transform="translate(4570.792 -7035.75)" fill="none" stroke="#c7a386" stroke-linecap="round" stroke-linejoin="round" stroke-width="2"/>
    <path id="Path_97754" data-name="Path 97754" d="M278.894,206.88a4.662,4.662,0,1,1,6.592,6.592l-14.5,14.5" transform="translate(4557.385 -7057.203)" fill="none" stroke="#c7a386" stroke-linecap="round" stroke-linejoin="round" stroke-width="2"/>
    <path id="Path_97755" data-name="Path 97755" d="M130.4,184.026l14.5-14.5a4.737,4.737,0,0,0-6.824-6.566l-22.356,22.412L119.8,168.9a3.934,3.934,0,0,0-2.92-4.5l-.094-.024a4.094,4.094,0,0,0-4.9,2.8c-3.426,10.95-11.439,32.748-10.484,41.906L78.983,232.81" transform="translate(4686.098 -7027.757)" fill="none" stroke="#c7a386" stroke-linecap="round" stroke-linejoin="round" stroke-width="2"/>
    <path id="Path_97756" data-name="Path 97756" d="M234.627,243.034a3.915,3.915,0,0,1,5.717-.12,4.867,4.867,0,0,1-.443,6.712l-27.688,27.688c-2.187,2.178-3.734,2.773-6.592,2.637l-2.637,2.637" transform="translate(4602.971 -7081.491)" fill="none" stroke="#c7a386" stroke-linecap="round" stroke-linejoin="round" stroke-width="2"/>
    <path id="Path_97757" data-name="Path 97757" d="M357.009,350.1h-22.78v-22.78" transform="translate(4514.986 -7138.864)" fill="none" stroke="#c7a386" stroke-linecap="round" stroke-linejoin="round" stroke-width="2"/>
    <path id="Path_97758" data-name="Path 97758" d="M30.144,37.055h22.78v22.78" transform="translate(4718.838 -6944.278)" fill="none" stroke="#c7a386" stroke-linecap="round" stroke-linejoin="round" stroke-width="2"/>
    <path id="Path_97759" data-name="Path 97759" d="M95.909,163.488A70.634,70.634,0,0,1,34.387,37.569" transform="translate(4737.37 -6944.623)" fill="none" stroke="#c7a386" stroke-linecap="round" stroke-linejoin="round" stroke-width="2"/>
    <path id="Path_97760" data-name="Path 97760" d="M147.6,6.259a70.633,70.633,0,0,1,63.8,124.357l-2.284,1.731" transform="translate(4640.1 -6921.113)" fill="none" stroke="#c7a386" stroke-linecap="round" stroke-linejoin="round" stroke-width="2"/>
  </g>
</svg>
