<svg width="32" height="32" viewBox="0 0 32 32" fill="none" xmlns="http://www.w3.org/2000/svg">
<rect width="32" height="32" rx="8" fill="#FFC700"/>
<circle opacity="0.3" cx="16" cy="16" r="10" fill="white"/>
<path d="M26 16C26 17.7129 25.56 19.3971 24.7222 20.8911C23.8844 22.3851 22.6769 23.6389 21.2154 24.5322C19.754 25.4256 18.0875 25.9286 16.3758 25.9929C14.6641 26.0573 12.9646 25.6809 11.4402 24.8999C9.9157 24.1188 8.61743 22.9593 7.66979 21.5324C6.72214 20.1055 6.1569 18.4592 6.02825 16.7511C5.89959 15.043 6.21183 13.3306 6.93504 11.7778C7.65825 10.2251 8.76818 8.88418 10.1584 7.88359L16 16H26Z" fill="white"/>
</svg>
