<?xml version="1.0" encoding="utf-8"?>
<!-- Generator: Adobe Illustrator 23.0.3, SVG Export Plug-In . SVG Version: 6.00 Build 0)  -->
<svg version="1.1" id="Layer_1" xmlns="http://www.w3.org/2000/svg" xmlns:xlink="http://www.w3.org/1999/xlink" x="0px" y="0px"
	 viewBox="0 0 800 222" style="enable-background:new 0 0 800 222;" xml:space="preserve">
<style type="text/css">
	.st0{fill:#FFFFFF;}
</style>
<g>
	<path class="st0" d="M189.5,159.5c-3.9,3.6-9.8,8.4-17.8,12.6c-2.9,1.5-15.6,8.1-33.9,9.1c-7.4,0.4-18.7,1.1-32-3.8
		c-8.9-3.3-15.4-7.8-19.6-11.2l-13.8,11.4c1.2-0.5,3.1-0.4,4.1,0.2c18,10.1,37.3,14.3,57.9,12.2c19.7-2,36.7-9.4,50.3-23.9
		c1.5-1.6,2.7-3.5,4.1-5.2C189,160.3,189.2,159.9,189.5,159.5"/>
	<path class="st0" d="M328.8,95.7c0,10.9-7.9,16.5-23.9,16.5h-25.5c-16.1,0-23.9-5.5-23.9-16.5V51c0-10.7,7.7-15.9,22.9-15.9h27.6
		c15.2,0,22.9,5.3,22.9,15.9V95.7z M329.7,136c2.4,1.8,4.2,2,5.3,2c4.7,0,7.4-2.2,7.4-6c0-1.9-1.4-3.9-3.9-5.7l-8.9-7.2
		c8.6-4.5,12.8-12.4,12.8-23.5v-45c0-18.4-12.1-27.6-36.2-27.6h-28.1c-24.2,0-36.2,9.2-36.2,27.6v45c0,18.8,12.3,28.2,36.9,28.2
		h26.8c2.8,0,5.4-0.1,7.8-0.3L329.7,136z"/>
	<path class="st0" d="M432.1,124.2c24.4,0,36.9-9.5,36.9-28.6v-67c0-4.1-2.3-6.1-6.8-6.1c-4.5,0-6.9,2-6.9,6.1v66.6
		c0,11.4-7.8,17.1-23.8,17.1H404c-16,0-23.9-5.7-23.9-17.1V28.6c0-4.1-2.3-6.1-6.8-6.1c-4.5,0-6.8,2-6.8,6.1v67
		c0,19.1,12.3,28.6,36.9,28.6H432.1z"/>
	<path class="st0" d="M582,124.2c4.3,0,6.4-2,6.4-6c0-3.9-2.1-6-6.4-6h-51.1c-16.1,0-23.9-5.5-23.9-16.5V78.9h75c4,0,6-1.9,6-5.7
		c0-3.8-2-5.7-6-5.7h-75V51c0-10.7,7.7-15.9,22.9-15.9h17.7c4.2,0,6.3-2,6.3-6c0-3.9-2.1-6-6.3-6h-18c-24.2,0-36.2,9.2-36.2,27.6
		v45.4c0,18.7,12.3,28,36.9,28H582z"/>
	<path class="st0" d="M703.4,89.1c0-15.3-12.7-23.1-38-23.1h-22.9c-13.7,0-20.6-3.5-20.6-10.8v-9.1c0-7.4,7.3-11.1,21.8-11.1h14
		c4.2,0,6.3-2,6.3-6c0-3.9-2.1-6-6.3-6h-14.1c-23.4,0-35.2,7.6-35.2,22.5v10.7c0,14.3,11.5,21.6,34.4,21.6h23.8
		c15.6,0,23.3,3.9,23.3,11.8v10.4c0,8-8.2,12.1-24.5,12.1h-51.1c-4.2,0-6.4,2-6.4,6c0,3.9,2.3,6,6.4,6h51.1
		c25.4,0,38.3-7.7,38.3-23.2V89.1z"/>
	<path class="st0" d="M730.8,118.8c0,4.1,2.3,6.1,6.9,6.1c4.4,0,6.7-2,6.7-6.1V35.1h34.2c4.3,0,6.4-2,6.4-6.1c0-3.8-2.1-5.8-6.4-5.8
		h-82.2c-4.2,0-6.3,2-6.3,6c0,4.1,2.1,6,6.3,6h34.4V118.8z"/>
</g>
<path class="st0" d="M274.9,182.1c0,5.2-3.1,7.7-9.3,7.7h-18.5c-1.1,0-1.7-0.7-1.7-2v-31.1c0-1.3,0.6-2,1.7-2h18
	c6.3,0,9.4,2.8,9.4,8.4v2.9c0,2.7-1,4.7-3,6c2.2,1.4,3.4,3.6,3.4,6.5V182.1z M270.7,163.3c0-2.9-1.8-4.4-5.6-4.4h-15.5
	c-0.2,0-0.3,0.1-0.3,0.4v10.9h16.1c3.5,0,5.3-1.4,5.3-4.1V163.3z M271,178.4c0-2.8-1.8-4.3-5.5-4.3h-16.2v11.2
	c0,0.3,0.1,0.4,0.3,0.4h15.9c3.7,0,5.5-1.3,5.5-4V178.4z M281.4,155.9c0-1.4,0.6-2.1,1.9-2.1s1.9,0.8,1.9,2.1v32
	c0,1.4-0.6,2.1-1.9,2.1s-1.9-0.7-1.9-2.1V155.9z M301.3,189.8c-6.2,0-9.3-2.7-9.3-8v-8.6c0-5.4,3.1-8.1,9.3-8.1h7
	c6.2,0,9.3,2.7,9.3,8.1v8.6c0,5.3-3.1,8-9.3,8H301.3z M313.7,173.2c0-2.6-1.8-3.9-5.4-3.9h-7.2c-3.5,0-5.3,1.3-5.3,3.9v8.7
	c0,2.5,1.8,3.9,5.3,3.9h7.2c3.6,0,5.4-1.3,5.4-3.9V173.2z M333.5,189.8c-6.2,0-9.3-2.7-9.3-8v-8.6c0-5.4,3.1-8.1,9.3-8.1h7
	c6.2,0,9.3,2.7,9.3,8.1v8.6c0,5.3-3.1,8-9.3,8H333.5z M345.9,173.2c0-2.6-1.8-3.9-5.4-3.9h-7.2c-3.5,0-5.3,1.3-5.3,3.9v8.7
	c0,2.5,1.8,3.9,5.3,3.9h7.2c3.6,0,5.4-1.3,5.4-3.9V173.2z M386.8,173c0-2.5-1.4-3.7-4.3-3.7h-2.6c-3,0-4.5,1.2-4.5,3.7v14.9
	c0,1.4-0.6,2.1-1.9,2.1c-1.3,0-1.9-0.7-1.9-2.1V173c0-2.5-1.4-3.7-4.4-3.7h-2.6c-2.8,0-4.3,1.2-4.3,3.7v14.9c0,1.4-0.6,2.1-1.9,2.1
	c-1.3,0-1.9-0.7-1.9-2.1V173c0-5.2,2.7-7.9,8.2-7.9h2.6c2.7,0,4.8,1,6.2,2.9c1.4-1.9,3.5-2.9,6.2-2.9h2.6c5.5,0,8.3,2.6,8.3,7.9
	v14.9c0,1.4-0.6,2.1-1.9,2.1c-1.3,0-1.9-0.7-1.9-2.1V173z M414.8,176.1v11.9c0,1.4-0.7,2.1-2,2.1c-1.3,0-1.9-0.7-1.9-2.1v-31.4
	c0-1.2,0.6-1.8,1.7-1.8h16.9c7.5,0,11.2,2.8,11.2,8.6v3.8c0,5.6-3.7,8.5-11.2,8.5h-8.6l16.7,10.3c0.8,0.5,1.1,1.1,1.1,2
	c0,1.3-0.7,2.2-2,2.2c-0.5,0-0.8-0.1-1.4-0.5L414.8,176.1z M414.8,171.7h14.8c4.8,0,7.2-1.5,7.2-4.6v-3.6c0-3-2.4-4.6-7.2-4.6h-14.6
	c-0.2,0-0.3,0.1-0.3,0.4V171.7z M449.7,179.2v3.1c0,2.4,1.7,3.6,5,3.6h5.3c1.2,0,1.8,0.7,1.8,2c0,1.3-0.6,2-1.8,2h-5.3
	c-5.8,0-8.8-2.5-8.8-7.5v-9.9c0-4.8,2.6-7.2,7.9-7.2h10.4c5.1,0,7.7,2.2,7.7,6.5v5.7c0,1.2-0.6,1.8-1.7,1.8H449.7z M449.7,175.7
	h18.1c0.2,0,0.3-0.2,0.3-0.4v-2.6c0-2.3-1.4-3.5-4.2-3.5H454c-2.9,0-4.3,1.2-4.3,3.5V175.7z M484.3,189.8c-5.2,0-7.7-2.2-7.7-6.7
	v-2.9c0-4.5,2.6-6.7,7.7-6.7h15.3v-0.8c0-2.4-1.5-3.5-4.4-3.5h-5.1c-1.2,0-1.8-0.7-1.8-2s0.6-2,1.8-2h5.1c5.5,0,8.2,2.5,8.2,7.6v9.9
	c0,4.8-2.6,7.1-7.9,7.1H484.3z M499.6,182.5V177h-15c-2.8,0-4.2,1.1-4.2,3.1v2.6c0,2.1,1.4,3.1,4.2,3.1h10.7
	C498.1,185.9,499.6,184.8,499.6,182.5z M510.1,155.9c0-1.4,0.6-2.1,1.9-2.1c1.3,0,1.9,0.8,1.9,2.1v32c0,1.4-0.6,2.1-1.9,2.1
	c-1.3,0-1.9-0.7-1.9-2.1V155.9z M524.5,179.2v3.1c0,2.4,1.7,3.6,5,3.6h5.3c1.2,0,1.8,0.7,1.8,2c0,1.3-0.6,2-1.8,2h-5.3
	c-5.8,0-8.8-2.5-8.8-7.5v-9.9c0-4.8,2.6-7.2,7.9-7.2h10.4c5.1,0,7.7,2.2,7.7,6.5v5.7c0,1.2-0.6,1.8-1.7,1.8H524.5z M524.5,175.7
	h18.1c0.2,0,0.3-0.2,0.3-0.4v-2.6c0-2.3-1.4-3.5-4.2-3.5h-9.9c-2.9,0-4.3,1.2-4.3,3.5V175.7z M575.8,184.1c0,3.8-2.7,5.7-8.2,5.7
	h-14.1c-1.2,0-1.8-0.7-1.8-2c0-1.3,0.6-2,1.8-2h14.1c3,0,4.4-0.6,4.4-1.7v-2.8c0-1.2-1.5-1.7-4.4-1.7h-7.4c-5.5,0-8.2-1.8-8.2-5.5
	v-2.4c0-4.3,2.8-6.5,8.5-6.5h4.9c1.2,0,1.8,0.7,1.8,2s-0.7,2-1.8,2h-4.9c-3.1,0-4.7,0.8-4.7,2.5v2.2c0,1.4,1.6,2.1,4.7,2.1h7.4
	c5.3,0,8,1.7,8,5.2V184.1z M586.1,169.3v18.6c0,1.4-0.6,2.1-1.9,2.1c-1.3,0-1.9-0.7-1.9-2.1v-18.6h-1.5c-1.2,0-1.8-0.7-1.8-2
	c0-1.3,0.6-2,1.8-2h1.5v-4.7c0-1.4,0.6-2.1,1.9-2.1c1.3,0,1.9,0.8,1.9,2.1v4.7h6.2c1.2,0,1.8,0.7,1.8,2c0,1.3-0.6,2-1.8,2H586.1z
	 M601.6,189.8c-5.2,0-7.7-2.2-7.7-6.7v-2.9c0-4.5,2.6-6.7,7.7-6.7H617v-0.8c0-2.4-1.5-3.5-4.4-3.5h-5.1c-1.2,0-1.8-0.7-1.8-2
	s0.6-2,1.8-2h5.1c5.5,0,8.2,2.5,8.2,7.6v9.9c0,4.8-2.6,7.1-7.9,7.1H601.6z M617,182.5V177h-15c-2.8,0-4.2,1.1-4.2,3.1v2.6
	c0,2.1,1.4,3.1,4.2,3.1h10.7C615.5,185.9,617,184.8,617,182.5z M633.3,169.3v18.6c0,1.4-0.6,2.1-1.9,2.1c-1.3,0-1.9-0.7-1.9-2.1
	v-18.6H628c-1.2,0-1.8-0.7-1.8-2c0-1.3,0.6-2,1.8-2h1.5v-4.7c0-1.4,0.6-2.1,1.9-2.1c1.3,0,1.9,0.8,1.9,2.1v4.7h6.2
	c1.2,0,1.8,0.7,1.8,2c0,1.3-0.6,2-1.8,2H633.3z M650.1,179.2v3.1c0,2.4,1.7,3.6,5,3.6h5.3c1.2,0,1.8,0.7,1.8,2c0,1.3-0.6,2-1.8,2
	h-5.3c-5.8,0-8.8-2.5-8.8-7.5v-9.9c0-4.8,2.6-7.2,7.9-7.2h10.4c5.1,0,7.7,2.2,7.7,6.5v5.7c0,1.2-0.6,1.8-1.7,1.8H650.1z
	 M650.1,175.7h18.1c0.2,0,0.3-0.2,0.3-0.4v-2.6c0-2.3-1.4-3.5-4.2-3.5h-9.9c-2.9,0-4.3,1.2-4.3,3.5V175.7z M702.4,189.8
	c-7,0-10.6-3.3-10.6-9.9v-23.3c0-1.4,0.6-2.1,1.9-2.1c1.3,0,2,0.7,2,2.1v23.1c0,4,2.2,5.9,6.8,5.9h14.9c1.2,0,1.8,0.7,1.8,2.1
	c0,1.4-0.6,2.1-1.8,2.1H702.4z M734.7,189.8c-7,0-10.6-3.3-10.6-9.9v-23.3c0-1.4,0.6-2.1,1.9-2.1c1.3,0,2,0.7,2,2.1v23.1
	c0,4,2.2,5.9,6.8,5.9h14.9c1.2,0,1.8,0.7,1.8,2.1c0,1.4-0.6,2.1-1.8,2.1H734.7z M766.9,189.8c-7,0-10.6-3.2-10.6-9.7v-15.8
	c0-6.4,3.5-9.6,10.4-9.6h13.8c1.2,0,1.8,0.7,1.8,2.1c0,1.4-0.6,2.1-1.8,2.1h-13.7c-4.4,0-6.6,1.8-6.6,5.5v15.5
	c0,3.8,2.2,5.7,6.8,5.7h13.4c1.2,0,1.8,0.7,1.8,2.1c0,1.4-0.6,2.1-1.8,2.1H766.9z"/>
<g>
	<path class="st0" d="M154.4,165.4c22.1-10.3,36.6-27,42.5-50.6c3.5-14,1.9-32.1-3.1-41.9c-4.2,1.3-8.3,2.8-12.7,3.8
		c-35.1,7.4-66.7,22.7-96,43c-18.2,12.6-34.4,27.4-47.8,45c-3.1,4.1-6,8.5-9.7,12.5c0.5-1.1,0.8-2.2,1.4-3.2
		c19.3-35.2,47.5-61.4,82-81.4c23.1-13.4,47.9-22.5,73.7-28.9c1.3-0.3,2.5-0.8,4.5-1.4C177.8,43.6,162,32,141,27.5
		c-20.8-4.4-40,0.1-57.6,11.8C100.8,21.5,134.1,11.7,165,26c30.8,14.2,48,46.4,43.1,79.2C203.5,136.4,178.7,160.3,154.4,165.4"/>
	<path class="st0" d="M32.4,196.2c6.4-12.5,18.2-32.6,38.6-51.8c5.9-5.5,12.2-10.7,18.7-15.4c6.2-4.5,12.7-8.6,19.3-12.3
		c6.2-3.5,12.6-6.7,19.2-9.5c5.9-2.6,12-4.9,18.2-7c5.4-1.8,10.8-3.4,16.4-4.7c4.6-1.1,9.1-2,13.8-2.7c3.4-0.5,6.7-0.9,10.1-1.1
		c2.4-0.1,6.9-0.7,8.2,2.1c0.6,1.3,0.2,2.8-0.6,3.8c-1.9,2.6-5.3,3.8-8.2,4.9c-2.8,1-5.8,1.7-8.7,2.4c-1.5,0.3-3,0.6-4.6,0.9
		c-16.2,2.8-37.4,8.4-60.1,19.9C70.1,147.3,44.8,178.3,32.4,196.2"/>
	<path class="st0" d="M20.1,167.8c1.2-3.7,2.2-6.7,2.3-7C33,134.5,50,113.1,71.5,95c18.4-15.5,38.9-27.2,61.2-36.1
		c7.1-2.8,14.5-4.9,21.8-6.9c4.8-1.3,8,0,9.1,2.6c2.2,5.4-5.7,8.7-9.5,10.1c-3.7,1.3-7.7,2.1-11.5,3.2c-4.1,1.2-8.1,2.5-12.1,3.9
		c-8.2,3-16.2,6.5-23.9,10.6c-0.6,0.3-1.2,0.6-1.8,1c-27.3,14.8-47.6,35.3-57.2,47c-14.9,18.1-27.5,40.6-28.3,40.1
		C19.3,170.5,19.5,169.6,20.1,167.8"/>
	<path class="st0" d="M91.1,163.3c9.6-7.1,20.1-12.9,30.9-18c9-4.3,18.4-8,27.8-11.1c6.5-2.2,12.9-3.7,19.6-5.1
		c1.9-0.4,3.7-1.1,5.1-2.4c0.9-0.8,1.5-2,1.5-3.2c0-1.8-1.4-3.3-3.1-4c-3.8-1.6-8,0-11.8,1c-2.9,0.8-5.9,1.7-8.8,2.7
		c-5.8,1.9-11.5,3.9-17.1,6.2c-11.2,4.5-21.9,10-32.1,16.4c-8.2,5.2-16,11-23.2,17.5c-15.7,14-28.7,30-36.4,49.8
		c-0.3,0.6-0.5,1.2-0.8,1.8c4.3-6.6,9.5-13.9,15.9-21.4c3.1-3.6,6.3-7.1,9.6-10.5c3.3-3.4,6.8-6.7,10.4-9.8c1.4-1.2,2.8-2.4,4.2-3.6
		C85.7,167.5,88.4,165.4,91.1,163.3"/>
	<path class="st0" d="M118.3,10.5c-6.4,0.4-15.5,1.6-25.7,5.1c-5.8,2-19.1,6.9-31.5,18.3c-30.4,27.8-28.9,69-28.6,73.9
		c0.1,1.5,0.2,2.7,0.3,3.6l14.7-18.1C46.2,65.2,68.5,20.5,118.3,10.5"/>
	<path class="st0" d="M120.3,49.7c0-0.1-0.1-0.1-0.1-0.2c-1-1.8-3.5-1.9-5.3-2c-21.2-0.6-51.3,27.7-51.3,27.7
		c-5.8,5.1-10.2,9.6-12.9,12.6c-8.7,9.5-30.4,33.6-36.4,68.3c-0.3,1.9-0.5,3.4-0.6,4.2c0.8-1.5,2.3-4.2,4-7.6
		c5.1-9.9,8.5-17.3,9.2-18.4c3.7-6.4,7.7-12.6,12-18.5c4.3-5.8,8.9-11.4,13.8-16.6c4.9-5.2,10.1-10,15.7-14.5
		C73.9,80.1,79.8,76,86,72.3c6.3-3.8,12.9-7,19.7-9.9c3.2-1.3,6.8-2.3,9.8-3.9c1.9-1,3.7-2.6,4.6-4.5C120.8,52.7,121,51,120.3,49.7"
		/>
</g>
</svg>
